<svg xmlns="http://www.w3.org/2000/svg" width="1200" height="680" viewBox="0 0 1200 680" role="img" aria-labelledby="title desc">
<title id="title">Edgecraft paper fund value</title>
<desc id="desc">Verified paper-fund value is $891.70, -10.83% from a $1,000.00 start across 43 sessions. The dashed line is starting capital.</desc>
<defs>
  <linearGradient id="bg" x1="0" y1="0" x2="1" y2="1"><stop stop-color="#0b0f17"/><stop offset="1" stop-color="#111827"/></linearGradient>
  <linearGradient id="area" x1="0" y1="0" x2="0" y2="1"><stop stop-color="#6366f1" stop-opacity=".28"/><stop offset="1" stop-color="#6366f1" stop-opacity="0"/></linearGradient>
  <filter id="glow"><feGaussianBlur stdDeviation="4" result="b"/><feMerge><feMergeNode in="b"/><feMergeNode in="SourceGraphic"/></feMerge></filter>
</defs>
<rect width="1200" height="680" rx="28" fill="url(#bg)"/>
<circle cx="1120" cy="40" r="170" fill="#4f46e5" opacity=".07"/>
<circle cx="80" cy="640" r="190" fill="#22d3ee" opacity=".05"/>
<g font-family="ui-sans-serif,system-ui,-apple-system,Segoe UI,sans-serif">
  <text x="48" y="52" fill="#f8fafc" font-size="22" font-weight="800" letter-spacing="2.4">EDGECRAFT</text>
  <text x="48" y="76" fill="#8b97ab" font-size="14">Autonomous paper fund · started with $1,000.00</text>
  <rect x="936" y="34" width="216" height="40" rx="20" fill="#102a25" stroke="#34d399" stroke-opacity=".45"/>
  <circle cx="960" cy="54" r="5" fill="#34d399"/>
  <text x="974" y="59" fill="#a7f3d0" font-size="14" font-weight="700">100% FAKE MONEY</text>

  <text x="48" y="128" fill="#8b97ab" font-size="12" font-weight="700" letter-spacing="1.6">FUND VALUE</text>
  <text x="48" y="176" fill="#f8fafc" font-size="52" font-weight="800" font-family="ui-monospace,SFMono-Regular,Menlo,monospace">$891.70</text>
  <text x="48" y="206" fill="#fb7185" font-size="18" font-weight="700" font-family="ui-monospace,SFMono-Regular,Menlo,monospace">-$108.30  (-10.83%) vs start</text>

  <text x="520" y="128" fill="#8b97ab" font-size="11" font-weight="700" letter-spacing="1.4">PEAK</text><text x="520" y="160" fill="#f8fafc" font-size="18" font-weight="700" font-family="ui-monospace,SFMono-Regular,Menlo,monospace">$1,189.12</text>
  <text x="748" y="128" fill="#8b97ab" font-size="11" font-weight="700" letter-spacing="1.4">CASH</text><text x="748" y="160" fill="#f8fafc" font-size="18" font-weight="700" font-family="ui-monospace,SFMono-Regular,Menlo,monospace">$891.70</text>
  <text x="976" y="128" fill="#8b97ab" font-size="11" font-weight="700" letter-spacing="1.4">SESSIONS</text><text x="976" y="160" fill="#f8fafc" font-size="18" font-weight="700" font-family="ui-monospace,SFMono-Regular,Menlo,monospace">43</text>

  <rect x="48" y="228" width="1104" height="368" rx="20" fill="#121826" stroke="#1e293b"/>
  <text x="72" y="258" fill="#f8fafc" font-size="15" font-weight="700">How the $1,000.00 has moved</text>
  <circle cx="780" cy="253" r="4" fill="#818cf8"/>
  <text x="792" y="258" fill="#c5cddb" font-size="12">Fund value</text>
  <line x1="900" y1="253" x2="928" y2="253" stroke="#94a3b8" stroke-width="2" stroke-dasharray="5 5"/>
  <text x="936" y="258" fill="#c5cddb" font-size="12">Started at $1,000.00</text>

  <line x1="108" y1="526" x2="1124" y2="526" stroke="#243044"/>
  <line x1="108" y1="490.7" x2="1124" y2="490.7" stroke="#243044" stroke-dasharray="3 7" opacity=".85"/>
  <text x="98" y="494.7" text-anchor="end" fill="#8b97ab" font-size="11" font-family="ui-monospace,SFMono-Regular,Menlo,monospace">$900</text>
  <line x1="108" y1="427.5" x2="1124" y2="427.5" stroke="#243044" stroke-dasharray="3 7" opacity=".85"/>
  <text x="98" y="431.5" text-anchor="end" fill="#8b97ab" font-size="11" font-family="ui-monospace,SFMono-Regular,Menlo,monospace">$1,000</text>
  <line x1="108" y1="364.4" x2="1124" y2="364.4" stroke="#243044" stroke-dasharray="3 7" opacity=".85"/>
  <text x="98" y="368.4" text-anchor="end" fill="#8b97ab" font-size="11" font-family="ui-monospace,SFMono-Regular,Menlo,monospace">$1,100</text>
  <line x1="108" y1="301.2" x2="1124" y2="301.2" stroke="#243044" stroke-dasharray="3 7" opacity=".85"/>
  <text x="98" y="305.2" text-anchor="end" fill="#8b97ab" font-size="11" font-family="ui-monospace,SFMono-Regular,Menlo,monospace">$1,200</text>
  <line x1="108" y1="427.5" x2="1124" y2="427.5" stroke="#94a3b8" stroke-width="1.5" stroke-dasharray="5 6" opacity=".9"/>
  <polygon points="108.0,526.0 108.0,427.5 151.5,427.5 186.1,427.5 225.4,427.5 269.6,428.4 304.0,432.0 308.9,435.6 343.3,378.1 386.6,380.8 442.2,382.0 461.2,308.1 466.0,399.7 505.3,470.4 539.7,477.8 544.6,476.3 579.5,478.3 583.9,480.0 585.7,480.0 586.8,480.0 588.4,480.0 590.1,480.0 600.5,480.0 601.8,480.0 604.2,480.0 606.7,480.0 609.3,480.0 610.2,480.0 611.9,480.0 613.5,479.7 614.6,479.4 616.3,479.7 617.9,479.9 619.5,480.2 629.0,480.2 1108.3,482.2 1108.9,485.8 1110.6,484.6 1112.2,489.9 1113.8,492.3 1115.5,492.3 1117.1,494.6 1118.7,495.9 1124.0,495.9 1124.0,526.0" fill="url(#area)"/>
  <polyline points="108.0,427.5 151.5,427.5 186.1,427.5 225.4,427.5 269.6,428.4 304.0,432.0 308.9,435.6 343.3,378.1 386.6,380.8 442.2,382.0 461.2,308.1 466.0,399.7 505.3,470.4 539.7,477.8 544.6,476.3 579.5,478.3 583.9,480.0 585.7,480.0 586.8,480.0 588.4,480.0 590.1,480.0 600.5,480.0 601.8,480.0 604.2,480.0 606.7,480.0 609.3,480.0 610.2,480.0 611.9,480.0 613.5,479.7 614.6,479.4 616.3,479.7 617.9,479.9 619.5,480.2 629.0,480.2 1108.3,482.2 1108.9,485.8 1110.6,484.6 1112.2,489.9 1113.8,492.3 1115.5,492.3 1117.1,494.6 1118.7,495.9 1124.0,495.9" fill="none" stroke="#818cf8" stroke-width="3.2" stroke-linecap="round" stroke-linejoin="round" filter="url(#glow)"/>
  <circle cx="108.0" cy="427.5" r="2.4" fill="#1e293b" stroke="#818cf8" stroke-width="1.4"/>
  <circle cx="151.5" cy="427.5" r="2.4" fill="#1e293b" stroke="#818cf8" stroke-width="1.4"/>
  <circle cx="186.1" cy="427.5" r="2.4" fill="#1e293b" stroke="#818cf8" stroke-width="1.4"/>
  <circle cx="225.4" cy="427.5" r="2.4" fill="#1e293b" stroke="#818cf8" stroke-width="1.4"/>
  <circle cx="269.6" cy="428.4" r="3.4" fill="#818cf8" stroke="#818cf8" stroke-width="1.4"/>
  <circle cx="304.0" cy="432.0" r="3.4" fill="#818cf8" stroke="#818cf8" stroke-width="1.4"/>
  <circle cx="308.9" cy="435.6" r="2.4" fill="#1e293b" stroke="#818cf8" stroke-width="1.4"/>
  <circle cx="343.3" cy="378.1" r="3.4" fill="#818cf8" stroke="#818cf8" stroke-width="1.4"/>
  <circle cx="386.6" cy="380.8" r="3.4" fill="#818cf8" stroke="#818cf8" stroke-width="1.4"/>
  <circle cx="442.2" cy="382.0" r="3.4" fill="#818cf8" stroke="#818cf8" stroke-width="1.4"/>
  <circle cx="461.2" cy="308.1" r="3.4" fill="#818cf8" stroke="#818cf8" stroke-width="1.4"/>
  <circle cx="466.0" cy="399.7" r="2.4" fill="#1e293b" stroke="#818cf8" stroke-width="1.4"/>
  <circle cx="505.3" cy="470.4" r="3.4" fill="#818cf8" stroke="#818cf8" stroke-width="1.4"/>
  <circle cx="539.7" cy="477.8" r="3.4" fill="#818cf8" stroke="#818cf8" stroke-width="1.4"/>
  <circle cx="544.6" cy="476.3" r="2.4" fill="#1e293b" stroke="#818cf8" stroke-width="1.4"/>
  <circle cx="579.5" cy="478.3" r="3.4" fill="#818cf8" stroke="#818cf8" stroke-width="1.4"/>
  <circle cx="583.9" cy="480.0" r="2.4" fill="#1e293b" stroke="#818cf8" stroke-width="1.4"/>
  <circle cx="585.7" cy="480.0" r="2.4" fill="#1e293b" stroke="#818cf8" stroke-width="1.4"/>
  <circle cx="586.8" cy="480.0" r="2.4" fill="#1e293b" stroke="#818cf8" stroke-width="1.4"/>
  <circle cx="588.4" cy="480.0" r="2.4" fill="#1e293b" stroke="#818cf8" stroke-width="1.4"/>
  <circle cx="590.1" cy="480.0" r="2.4" fill="#1e293b" stroke="#818cf8" stroke-width="1.4"/>
  <circle cx="600.5" cy="480.0" r="2.4" fill="#1e293b" stroke="#818cf8" stroke-width="1.4"/>
  <circle cx="601.8" cy="480.0" r="2.4" fill="#1e293b" stroke="#818cf8" stroke-width="1.4"/>
  <circle cx="604.2" cy="480.0" r="2.4" fill="#1e293b" stroke="#818cf8" stroke-width="1.4"/>
  <circle cx="606.7" cy="480.0" r="2.4" fill="#1e293b" stroke="#818cf8" stroke-width="1.4"/>
  <circle cx="609.3" cy="480.0" r="2.4" fill="#1e293b" stroke="#818cf8" stroke-width="1.4"/>
  <circle cx="610.2" cy="480.0" r="2.4" fill="#1e293b" stroke="#818cf8" stroke-width="1.4"/>
  <circle cx="611.9" cy="480.0" r="2.4" fill="#1e293b" stroke="#818cf8" stroke-width="1.4"/>
  <circle cx="613.5" cy="479.7" r="2.4" fill="#1e293b" stroke="#818cf8" stroke-width="1.4"/>
  <circle cx="614.6" cy="479.4" r="3.4" fill="#818cf8" stroke="#818cf8" stroke-width="1.4"/>
  <circle cx="616.3" cy="479.7" r="2.4" fill="#1e293b" stroke="#818cf8" stroke-width="1.4"/>
  <circle cx="617.9" cy="479.9" r="2.4" fill="#1e293b" stroke="#818cf8" stroke-width="1.4"/>
  <circle cx="619.5" cy="480.2" r="3.4" fill="#818cf8" stroke="#818cf8" stroke-width="1.4"/>
  <circle cx="629.0" cy="480.2" r="2.4" fill="#1e293b" stroke="#818cf8" stroke-width="1.4"/>
  <circle cx="1108.3" cy="482.2" r="3.4" fill="#818cf8" stroke="#818cf8" stroke-width="1.4"/>
  <circle cx="1108.9" cy="485.8" r="2.4" fill="#1e293b" stroke="#818cf8" stroke-width="1.4"/>
  <circle cx="1110.6" cy="484.6" r="2.4" fill="#1e293b" stroke="#818cf8" stroke-width="1.4"/>
  <circle cx="1112.2" cy="489.9" r="3.4" fill="#818cf8" stroke="#818cf8" stroke-width="1.4"/>
  <circle cx="1113.8" cy="492.3" r="2.4" fill="#1e293b" stroke="#818cf8" stroke-width="1.4"/>
  <circle cx="1115.5" cy="492.3" r="2.4" fill="#1e293b" stroke="#818cf8" stroke-width="1.4"/>
  <circle cx="1117.1" cy="494.6" r="2.4" fill="#1e293b" stroke="#818cf8" stroke-width="1.4"/>
  <circle cx="1118.7" cy="495.9" r="3.4" fill="#818cf8" stroke="#818cf8" stroke-width="1.4"/>
  <circle cx="1124.0" cy="495.9" r="2.4" fill="#1e293b" stroke="#818cf8" stroke-width="1.4"/>
  <circle cx="461.2" cy="308.1" r="4.5" fill="#f8fafc"/><text x="451.2" y="292.1" text-anchor="end" fill="#c5cddb" font-size="11" font-family="ui-monospace,SFMono-Regular,Menlo,monospace">peak $1,189.12</text>
  <circle cx="1124.0" cy="495.9" r="6" fill="#818cf8" stroke="#0b0f17" stroke-width="2"/>
  <text x="1112.0" y="515.9" text-anchor="end" fill="#c5cddb" font-size="12" font-family="ui-monospace,SFMono-Regular,Menlo,monospace">$891.70</text>
  <text x="108.0" y="548" text-anchor="start" fill="#8b97ab" font-size="12">Aug 22</text><text x="544.6" y="548" text-anchor="middle" fill="#8b97ab" font-size="12">Sep 02</text><text x="1124.0" y="548" text-anchor="end" fill="#8b97ab" font-size="12">Sep 17</text>

  <text x="48" y="630" fill="#8b97ab" font-size="13">Goal: compound toward $100,000.00 over ten years · not a return promise</text>
  <text x="48" y="654" fill="#64748b" font-size="12">Updated 2026-09-17 14:19 UTC · All cash · 14 trades · 35 fills · edgecraft-aggressive</text>
</g></svg>
